<?xml version="1.0" encoding="utf-8"?>
<!-- Generator: Adobe Illustrator 21.1.0, SVG Export Plug-In . SVG Version: 6.00 Build 0)  -->
<svg version="1.1" id="Layer_1" xmlns="http://www.w3.org/2000/svg" xmlns:xlink="http://www.w3.org/1999/xlink" x="0px" y="0px"
	 viewBox="0 0 48 48" style="enable-background:new 0 0 48 48;" xml:space="preserve">
<style type="text/css">
	.st0{fill:#207BFE;enable-background:new    ;}
	.st1{fill:#FFFFFF;}
</style>
<g id="logo-e">
	<circle id="e-circle" class="st0" cx="24" cy="24" r="24"/>
	<path id="encore-e" class="st1" d="M11.1,26.8L9,26.2l0.6-4.5c0,0,2.1,0.5,2.1,0.4c0.2-0.6,0.3-1.1,0.5-1.5c0.7-2,1.8-3.8,3.2-5.3
		s3-2.8,4.9-3.7s4.1-1.4,6.4-1.4c1.2,0,2.2,0.2,3.2,0.5s1.9,0.8,2.6,1.4c0.7,0.6,1.3,1.4,1.7,2.3c0.4,0.9,0.6,1.9,0.6,3.1
		c0,1.9-0.4,3.4-1.2,4.7s-2,2.3-3.5,3.2c-1.5,0.8-3.2,1.4-5.2,1.8s-4.2,0.6-6.6,0.6c0.2,1.4,0.7,2.4,1.5,2.9c0.8,0.6,2,0.9,3.7,0.9
		c1.1,0,2.1-0.1,3.2-0.3c1.1-0.2,2.1-0.5,3.1-0.8l0.5,5.8c-0.9,0.4-2.1,0.7-3.5,1s-3,0.4-4.7,0.4c-2.1,0-3.8-0.3-5.2-0.9
		c-1.4-0.6-2.5-1.4-3.4-2.4s-1.5-2.2-1.9-3.5C11.3,29.7,11.2,28.3,11.1,26.8 M25.6,16.1c-1.7,0-3.2,0.6-4.4,1.8
		c-1.3,1.2-2.1,2.8-2.5,4.8c2.1-0.1,3.7-0.2,5-0.5s2.2-0.6,2.9-1c0.7-0.4,1.2-0.8,1.4-1.3c0.2-0.5,0.4-0.9,0.4-1.4
		C28.3,16.9,27.4,16.1,25.6,16.1"/>
</g>
</svg>
